<?xml version="1.0" encoding="utf-8"?>
<!-- Generator: Adobe Illustrator 16.0.0, SVG Export Plug-In . SVG Version: 6.00 Build 0)  -->
<!DOCTYPE svg PUBLIC "-//W3C//DTD SVG 1.1//EN" "http://www.w3.org/Graphics/SVG/1.1/DTD/svg11.dtd">
<svg version="1.1" id="Layer_1" xmlns="http://www.w3.org/2000/svg" xmlns:xlink="http://www.w3.org/1999/xlink" x="0px" y="0px"
	 width="1189.86px" height="892.992px" viewBox="0 0 1189.86 892.992" enable-background="new 0 0 1189.86 892.992"
	 xml:space="preserve">
<path fill="#3096FB" d="M936.929,586.178H721.39c-28.592,0-51.686-23.092-51.686-51.686v-63.781
	c0-28.592,23.094-51.686,51.686-51.686h48.387c46.188,0,189.146,111.068,189.146,146.258c0,6.6-3.301,12.098-7.699,16.496
	C946.826,585.079,942.427,586.178,936.929,586.178z M721.39,453.116c-9.896,0-18.695,8.799-18.695,18.695v63.781
	c0,9.896,8.799,18.695,18.695,18.695h193.545c-31.891-34.092-118.766-101.172-145.158-101.172H721.39L721.39,453.116z"/>
<path fill="#3096FB" d="M850.054,764.329H326.603c1.102,5.498,1.102,10.996,1.102,16.494s-1.102,10.998-1.102,16.496h523.451
	c-1.102-5.498-1.102-10.998-1.102-16.496C848.955,775.325,848.955,769.827,850.054,764.329z"/>
<path fill="#3096FB" d="M1102.982,591.678c-7.697-5.5-15.396-9.898-23.094-14.297c-40.688-35.189-73.68-65.98-102.27-93.475
	C874.248,388.235,826.96,344.249,745.585,344.249H497.056v32.99h248.529c68.18,0,109.967,38.488,210.039,130.861
	c29.691,27.492,62.682,58.283,104.471,94.574l1.1,1.1c7.697,5.498,15.396,10.996,24.193,16.494
	c30.791,19.795,68.182,43.988,68.182,63.783v54.984c0,15.395-12.098,27.49-27.492,27.49h-57.186
	c1.102,5.498,1.102,10.996,1.102,16.494c0,5.5-1.102,10.998-1.102,16.496h57.186c32.99,0,60.482-26.393,60.482-60.48v-54.984
	C1186.558,644.463,1144.769,618.069,1102.982,591.678z"/>
<path fill="#3096FB" d="M105.566,764.329H57.179c-15.395,0-27.492-12.098-27.492-27.492V402.532
	c0-15.396,12.098-27.492,27.492-27.492h76.98v-32.99h-76.98c-32.99,0-60.48,26.393-60.48,60.482v334.305
	c0,32.99,26.393,60.482,60.48,60.482h48.387c-1.1-5.498-1.1-10.998-1.1-16.496S104.466,769.827,105.566,764.329z"/>
<path fill="#3096FB" d="M216.634,860c-37.389,0-69.281-26.393-76.979-62.682h-32.99c7.697,53.885,53.885,95.672,109.969,95.672
	s102.27-41.787,109.969-95.672h-32.99C285.914,832.508,254.023,860,216.634,860z"/>
<path fill="#3096FB" d="M216.634,702.747c37.389,0,69.279,26.393,76.979,62.682h32.99c-7.697-53.885-53.885-95.674-109.969-95.674
	s-102.271,41.789-109.969,95.674h32.99C146.253,729.139,178.144,702.747,216.634,702.747z"/>
<path fill="#3278FF" d="M137.457,780.823c0-5.498,1.1-10.996,2.199-16.494h-32.99c-1.102,5.498-1.102,10.996-1.102,16.494
	s1.102,10.998,1.102,16.496h32.99C138.556,791.821,137.457,786.321,137.457,780.823z"/>
<path fill="#3096FB" d="M137.457,780.823c0-5.498,1.1-10.996,2.199-16.494h-32.99c-1.102,5.498-1.102,10.996-1.102,16.494
	s1.102,10.998,1.102,16.496h32.99C138.556,791.821,137.457,786.321,137.457,780.823z"/>
<path opacity="0.48" fill="#3278FF" enable-background="new    " d="M326.603,764.329h-32.99c1.1,5.498,2.199,10.996,2.199,16.494
	s-1.1,10.998-2.199,16.496h32.99c1.102-5.498,1.102-10.998,1.102-16.496C327.703,775.325,327.703,769.827,326.603,764.329z"/>
<path fill="#3096FB" d="M326.603,764.329h-32.99c1.1,5.498,2.199,10.996,2.199,16.494s-1.1,10.998-2.199,16.496h32.99
	c1.102-5.498,1.102-10.998,1.102-16.496C327.703,775.325,327.703,769.827,326.603,764.329z"/>
<path fill="#3096FB" d="M960.023,860c-37.391,0-69.281-26.393-76.979-62.682h-32.99c7.697,53.885,53.885,95.672,109.969,95.672
	s102.271-41.787,109.969-95.672h-32.99C1029.302,832.508,997.412,860,960.023,860z"/>
<path fill="#3096FB" d="M960.023,702.747c37.389,0,69.279,26.393,76.979,62.682h32.99c-7.697-53.885-53.885-95.674-109.969-95.674
	s-102.271,41.789-109.969,95.674h32.99C890.742,729.139,922.632,702.747,960.023,702.747z"/>
<path fill="#3278FF" d="M880.845,780.823c0-5.498,1.1-10.996,2.199-16.494h-32.99c-1.102,5.498-1.102,10.996-1.102,16.494
	s1.102,10.998,1.102,16.496h32.99C881.945,791.821,880.845,786.321,880.845,780.823z"/>
<path fill="#3096FB" d="M880.845,780.823c0-5.498,1.1-10.996,2.199-16.494h-32.99c-1.102,5.498-1.102,10.996-1.102,16.494
	s1.102,10.998,1.102,16.496h32.99C881.945,791.821,880.845,786.321,880.845,780.823z"/>
<path opacity="0.48" fill="#3278FF" enable-background="new    " d="M1069.99,764.329H1037c1.1,5.498,2.199,10.996,2.199,16.494
	s-1.1,10.998-2.199,16.496h32.99c1.102-5.498,1.102-10.998,1.102-16.496S1071.089,769.827,1069.99,764.329z"/>
<path fill="#3096FB" d="M1069.99,764.329H1037c1.1,5.498,2.199,10.996,2.199,16.494s-1.1,10.998-2.199,16.496h32.99
	c1.102-5.498,1.102-10.998,1.102-16.496S1071.089,769.827,1069.99,764.329z"/>
<path fill="#3096FB" d="M352.996,656.559c-184.748,0-267.225-100.072-283.721-142.959c-5.498-14.297,1.102-23.094,4.398-26.393
	c5.498-5.498,12.098-7.697,18.695-7.697c-25.293-36.291-41.789-83.576-30.791-105.57c5.498-10.998,17.594-16.496,29.689-13.197
	c5.498,1.102,12.098,4.398,19.795,7.699c-19.795-45.088-36.289-105.57-15.395-124.266c5.498-5.498,20.895-15.396,45.088,6.598
	c9.895,8.799,20.893,20.896,31.891,34.092c-13.197-58.283-17.596-122.064,5.498-137.461c8.797-5.5,21.994-6.6,35.189,5.498
	c6.6,6.6,14.297,16.494,20.895,26.393c-3.299-67.08,7.697-125.363,36.289-134.16c7.699-2.199,26.395-4.398,38.49,25.293
	c3.299,8.797,7.697,25.291,13.195,45.086c5.498-60.482,19.795-113.268,53.885-115.467c20.895-1.102,37.389,17.596,40.688,47.287
	c24.193,224.336,127.563,390.389,170.451,451.971c1.102,1.1,2.199,3.299,2.199,3.299c10.996,16.496,27.492,48.387,9.896,69.281
	c-6.598,8.797-18.693,9.896-27.492,3.299c-7.697-6.6-9.896-17.596-3.299-26.393c0-3.299-3.299-13.197-10.998-25.293l-2.197-2.199
	c-45.088-63.783-151.758-236.434-178.15-469.566c0-3.299-1.1-5.498-1.1-7.697c-6.598,13.195-18.693,48.387-18.693,138.561
	c0,19.795,0,43.988-20.895,47.287c-23.094,3.299-29.691-19.795-50.586-96.771c-3.299-10.998-6.6-23.096-8.799-31.893
	c-5.498,27.492-9.896,80.277,3.301,147.357c1.1,7.697,5.498,27.492-12.098,32.99c-17.596,6.6-25.293-7.697-41.787-37.389
	c-7.699-14.297-17.596-32.99-27.492-47.287c0,30.791,7.697,87.977,29.691,145.158c4.396,9.898,10.996,28.592-5.5,38.49
	c-16.494,9.895-26.393-2.199-54.984-37.391c-13.195-16.494-29.689-37.389-43.986-51.686c5.498,29.691,23.094,80.277,40.688,102.271
	c7.699,8.799,20.895,25.293,8.799,38.488c-12.098,14.297-26.393,5.498-52.785-9.896c-6.6-4.398-16.494-9.896-24.193-14.295
	c6.6,21.994,24.193,59.383,49.486,80.277c9.896,8.797,24.193,20.893,15.396,37.389c-7.699,14.297-21.994,10.996-38.49,5.498
	c32.99,39.59,114.367,103.371,280.42,86.875c10.998-1.1,19.795,6.6,20.896,17.596c1.1,10.996-6.6,19.795-17.596,20.895
	C389.285,655.459,370.589,656.559,352.996,656.559z"/>
</svg>
