<?xml version="1.0" encoding="utf-8"?>
<!-- Generator: Adobe Illustrator 16.0.0, SVG Export Plug-In . SVG Version: 6.00 Build 0)  -->
<!DOCTYPE svg PUBLIC "-//W3C//DTD SVG 1.1//EN" "http://www.w3.org/Graphics/SVG/1.1/DTD/svg11.dtd">
<svg version="1.1" id="Layer_1" xmlns="http://www.w3.org/2000/svg" xmlns:xlink="http://www.w3.org/1999/xlink" x="0px" y="0px"
	 width="119.569px" height="442.797px" viewBox="50.5 34.5 119.569 442.797" enable-background="new 50.5 34.5 119.569 442.797"
	 xml:space="preserve">
<path fill="#3096FB" d="M140.065,421.879c0.836,0,0,8.75-0.414,9.584l-5.836,32.5c0,0.416-0.414,0.834-1.25,0.834H95.901
	c-0.418,0-1.25-0.417-1.25-0.834l-5.832-32.5c0-0.834-0.832-9.584-0.418-9.584H140.065 M135.065,428.545l-45-0.416
	c-4.164,0-7.914-5-10.414-1.667c-2.5,2.917-3.75,1.25-2.922,5.001l6.25,34.584c1.25,6.666,6.672,11.25,13.336,11.25h36.668
	c6.668,0,12.5-4.584,13.332-11.25l6.25-34.584c0.836-4.168,0.836-14.168-2.082-17.501c-2.5-2.917-1.668,12.917-5.832,12.917
	L135.065,428.545z"/>
<path fill="#3096FB" d="M145.901,406.461c0.832,0,1.25,0.418,1.25,1.25v12.918c0,0.833-0.422,1.25-1.25,1.25h-62.5
	c-0.836,0-1.25-0.417-1.25-1.25v-12.918c0-0.832,0.414-1.25,1.25-1.25H145.901 M145.901,393.961h-62.5
	c-7.5,0-13.75,6.25-13.75,13.75v12.918c0,7.5,6.25,13.75,13.75,13.75h62.5c7.5,0,13.75-6.25,13.75-13.75v-12.918
	C159.651,400.211,153.401,393.961,145.901,393.961L145.901,393.961z"/>
<path fill="#3096FB" d="M171.315,314.793c-0.414-4.584-2.5-9.167-6.25-11.667c-0.414-0.417-0.414-0.833-0.414-1.25
	c3.75-9.583,5.832-19.584,5-30.834c0-4.583,0-9.167,0.418-15.001c0.418-2.916,0-6.25-1.668-8.75c-1.25-2.083-2.5-3.75-4.164-5
	c-0.418-0.416-0.418-0.833-0.418-1.25c4.582-11.25,6.25-23.75,5-37.917c-0.418-5.001-0.418-9.584-0.418-16.251v-0.416v-83.752
	c0-2.5-1.664-4.167-4.164-4.167s-4.168,1.667-4.168,4.167v68.752c0,0.833-0.832,1.249-1.668,1.249
	c-1.664-0.833-3.332-1.249-5.414-1.249h-0.418c-0.418-7.501-2.918-14.584-6.668-22.084c-5.414-10.001-10-20.418-14.164-30.001
	c-0.836-2.083-1.668-3.751-2.5-5.834c-1.668-3.75-5.004-6.667-9.172-8.333c-0.414,0-0.832-0.417-0.832-1.25V46.87
	c0-2.5-1.668-4.167-4.168-4.167s-4.164,1.667-4.164,4.167v57.085c0,0.416-0.418,0.833-0.836,1.25c-4.164,1.25-7.5,4.583-9.168,8.75
	l-0.832,2.5c-2.922,7.083-6.25,15.417-10.418,22.917c-0.832,1.667-1.668,3.333-2.504,5c-2.5-1.667-5.414-2.5-8.328-2.5
	c-1.668,0-3.75,0.417-5.418,0.833c-0.832,0.417-1.668-0.416-1.668-1.25V85.204c0-2.5-1.664-4.167-4.164-4.167
	s-4.168,1.667-4.168,4.167v83.752c0,0.417,0,0.417,0,0.833c0,2.084,0,3.751-0.418,5.417c-1.664,13.751,0.418,25.417,5,35.418
	c0.418,0.417,0,1.25-0.414,1.25c-3.75,2.917-6.25,7.083-6.25,12.5v2.083c0,8.751,0,17.501,0,26.668
	c0.414,7.5,2.082,14.584,5.414,21.667c-0.836,0.417-1.664,1.25-2.086,2.083c-2.914,2.917-4.164,7.084-4.164,11.668l0.418,4.166
	c0.832,9.584,1.246,18.334,1.668,27.084c0.832,17.5,11.25,28.751,19.582,37.918l0,0c0.418,0.416,17.082,15.834,17.082,20.417
	c0,3.333,0,10.001,0,17.917c0,1.25,0,2.917,0,4.167h12.5c0-10.417,0-20.834,0-26.251c0-5.416-11.664-15.417-17.914-22.5
	c-8.336-9.584-17.914-18.334-18.336-32.501c-0.414-10.001-1.246-20.417-2.077-31.667c0-1.667,1.246-2.917,2.914-2.917
	c0.836,0,1.668,0.416,2.086,0.833c13.332,15.417,34.164,23.751,35.836,47.502c0.414-7.501,0-15.834-3.336-21.668
	c-5.832-9.584-13.336-17.917-20.836-26.25c-8.75-9.168-15-19.584-15.414-32.501c-0.418-9.584-0.418-18.751,0-28.334
	c0-1.667,1.25-2.917,2.914-2.917c0.836,0,1.668,0.416,2.086,0.834c12.082,14.583,34.168,22.5,34.586,47.917
	c1.246-4.583,2.914-9.583,1.246-12.917c-5-9.583-10-19.167-17.082-26.667c-14.586-15.417-24.586-31.667-21.673-54.168
	c0.836-6.25,0.836-12.917,0.423-20.001c0-1.666,1.246-2.916,2.914-2.916c0.836,0,1.664,0.416,2.086,1.25
	c7.5,11.25,18.75,19.584,25.832,30.834c0.418,0.833,1.25,1.25,2.082,1.25c1.668,0,3.336-1.667,2.5-3.75
	c-2.078-4.584-5-8.75-8.75-12.5c-7.914-8.334-8.332-15.834-2.5-26.251c5-9.167,8.75-18.751,12.086-26.667
	c0.414-1.25,1.664-1.668,2.5-1.668s2.082,0.417,2.5,1.668c5,11.25,10.414,24.166,17.086,36.25c8.75,15.834,6.25,30.001-4.168,43.752
	c-3.332,4.583-7.918,8.333-10,13.333c-2.504,5.834-3.75,12.501-5.004,19.167c-0.414,1.25,0.422,2.917,1.668,3.334l0.832,0.416
	c2.086-22.5,21.672-32.501,32.922-49.584c0.414-0.834,1.25-1.25,2.082-1.25c1.246,0,2.918,1.25,2.918,2.916
	c0,6.25-0.418,12.084,0.414,17.917c2.086,22.501-4.582,41.251-22.082,55.835c-4.582,3.75-8.75,8.334-12.082,13.334
	c-2.086,2.916-3.75,6.25-5,9.583c-0.836,2.084,0.832,3.751,2.914,3.751c0.836,0,1.668-0.417,2.5-1.667
	c6.672-12.917,20.422-20.834,30.422-32.501c0.414-0.834,1.246-0.834,2.078-0.834c1.672,0,2.922,1.25,2.922,2.917
	c-0.418,6.251-0.836,11.667-0.836,17.084c0.836,17.501-5,32.084-17.086,45.001c-5,5.417-10.414,10.417-15.414,16.25
	c-2.086,2.084-3.75,4.584-5,6.668c-1.25,2.082,0.832,4.166,2.5,4.166c0.832,0,1.664-0.416,2.082-1.25
	c8.332-11.25,21.25-17.917,29.582-28.751c0.418-0.833,1.25-0.833,2.086-0.833c1.25,0,2.5,0.833,2.914,2.5
	c1.668,30.417-5,27.917-29.164,47.918c-3.336,2.5-7.5,7.916-8.336,11.25c-2.082,7.084-2.914,17.084-3.75,26.25h14.168l2.082-22.5
	v-0.416c1.25-2.084,2.922-4.168,3.336-4.584l0,0C164.651,350.627,172.983,349.377,171.315,314.793z"/>
</svg>
