<?xml version="1.0" encoding="utf-8"?>
<!-- Generator: Adobe Illustrator 16.0.0, SVG Export Plug-In . SVG Version: 6.00 Build 0)  -->
<!DOCTYPE svg PUBLIC "-//W3C//DTD SVG 1.1//EN" "http://www.w3.org/Graphics/SVG/1.1/DTD/svg11.dtd">
<svg version="1.1" id="Layer_1" xmlns="http://www.w3.org/2000/svg" xmlns:xlink="http://www.w3.org/1999/xlink" x="0px" y="0px"
	 width="938.033px" height="1150.766px" viewBox="0 0 938.033 1150.766" enable-background="new 0 0 938.033 1150.766"
	 xml:space="preserve">
<path fill="#3096FB" d="M937.853,760.377c2.199-30.791-5.498-57.184-24.193-78.078c-18.693-20.895-40.688-31.891-65.98-31.891
	c-43.987,0-87.976-1.1-130.862-1.1c-17.595,0-35.188,0-51.687,0c-5.498,0-9.896,0-15.396,0h-6.599l0,0c0-1.101,0-2.199,0-2.199
	c8.797-29.691,14.297-60.483,16.496-89.075c3.299-38.489,1.1-71.479-6.599-100.071c-9.897-37.39-29.692-68.181-57.185-90.175
	c-14.297-10.997-27.492-16.495-42.889-17.595c-1.1,0-1.1,0-2.199,0c-25.293,0-46.188,10.997-63.782,34.09
	c-1.101,2.2-1.101,5.499-1.101,6.6c0,7.697,1.101,15.396,1.101,23.094c1.101,15.396,2.2,31.891,2.2,47.285
	c0,14.297,0,32.99-7.698,49.486c-8.797,21.993-19.794,46.188-31.892,69.28c-26.393,50.585-61.582,92.373-103.371,125.364
	c-2.198,1.1-4.397,3.299-6.598,4.397c-1.1,0-1.1,1.101-2.199,1.101c0-1.101,0-2.199,0-2.199
	c-2.198-21.994-19.795-43.987-50.586-43.987l0,0c-40.688,0-80.276,0-120.966,0c-38.489,0-76.978,0-115.467,0
	c-28.592,0-50.586,20.895-50.586,50.585c0,13.197,0,26.394,0,39.59v24.192c0,107.771,0,215.538,0,322.208
	c0,27.492,21.994,49.486,48.387,49.486c35.19,0,71.479,0,108.868,0c43.988,0,87.977,0,133.063,0
	c23.095,0,41.789-15.396,47.286-37.391c0-2.198,1.102-4.397,1.102-6.598c0-1.101,0-1.101,0-2.199c1.1,0,1.1,1.1,2.198,1.1
	c19.795,13.197,40.688,19.795,64.881,18.695c4.399,0,8.799,0,12.098-1.101c4.398,0,9.896-1.1,14.296-1.1
	c131.963,0,233.134,0,327.707,0l0,0c12.097,0,23.093-2.199,34.09-5.499c31.892-9.896,52.785-28.592,63.782-57.185
	c5.498-13.196,5.498-27.491,5.498-37.39c0-2.199,1.1-4.398,2.199-5.498c15.396-12.097,25.293-27.492,30.791-49.486
	c4.398-17.595,5.499-34.09,3.299-50.585c0-4.398,1.102-7.698,4.398-10.997c9.896-8.797,17.596-19.794,21.994-35.188
	c7.697-25.293,3.299-49.486-2.199-67.082c-1.101-2.199,0-5.498,1.1-7.697C931.254,786.77,936.752,773.572,937.853,760.377z
	 M887.267,805.464c6.599,16.495,9.896,34.091,7.697,50.585c-2.199,15.396-9.896,25.293-23.093,32.991
	c-1.101,1.101-2.2,1.101-3.3,2.199c-5.498,3.299-6.598,3.299-5.498,9.896c0,1.101,1.1,3.3,1.1,5.498
	c3.299,21.994,3.299,40.688-1.1,58.283c-4.398,17.596-14.296,28.592-29.691,32.99c-4.398,1.101-6.599,2.2-7.697,4.398
	c-1.1,2.199,0,5.498,1.1,9.897c3.299,10.996,4.398,23.093,1.1,36.289c-3.299,15.396-13.195,26.393-30.791,32.99
	c-13.195,5.498-26.393,8.798-39.588,8.798l0,0c-102.271,0-206.74,0-307.912,0h-17.596c-4.398,0-8.798,0-13.195,0
	c-5.498,0-12.098,1.1-17.597,0c-27.492-1.101-46.187-12.097-59.383-32.991c-1.101-2.199-2.199-4.398-2.199-6.598
	c0-48.387,0-97.872,0-146.258c0-48.388,0-97.873,0-146.26c0-3.299,1.101-4.397,4.397-6.599
	c37.391-24.192,71.48-56.084,101.172-96.771c25.293-32.991,46.188-72.58,65.98-119.866c9.896-24.192,14.296-51.686,14.296-86.875
	c0-13.195-1.101-26.393-2.199-39.589v-6.599c0-3.299,1.101-5.498,3.299-7.697c7.698-6.6,16.495-9.896,24.192-9.896
	c7.698,0,14.297,3.299,21.994,8.798c19.795,15.396,34.09,35.188,42.889,60.481c8.797,25.293,12.096,52.785,10.996,84.676
	c-2.199,46.188-12.096,92.375-30.791,139.66c0,1.101-1.1,2.199-1.1,3.301l-1.101,3.299h65.981c56.084,0,114.367,0,170.451,0l0,0
	c10.996,0,19.793,2.199,27.492,6.598c12.097,6.6,24.192,14.296,32.99,26.393c13.195,17.597,15.396,36.291,5.498,59.384
	c-2.199,5.499-5.498,10.997-8.797,16.496C885.065,796.666,885.065,801.064,887.267,805.464z M69.1,1115.575
	c-5.499,0-10.997,0-16.495,0c-9.896,0-14.296-5.498-14.296-14.296c0-128.663,0-256.227,0-384.891
	c0-10.996,4.398-15.396,15.396-15.396H209.86h78.078c10.996,0,15.396,4.397,15.396,15.396c0,46.188,0,91.273,0,137.461v103.371
	c0,48.386,0,95.673,0,144.059c0,9.896-5.498,15.396-14.296,15.396c-42.888,0-85.775,0-128.663,0L69.1,1115.575z"/>
<g>
	<g>
		<path fill="#3096FB" d="M486.981,185.24h-2.201c-1.1,0-2.199,0-2.199,0c-3.299,0-6.598-1.1-8.797-1.1
			c-5.498-1.101-10.996-4.398-14.295-8.798l-20.895-20.895l15.395-15.396c1.102,1.101,3.299,2.199,5.5,3.3
			c1.1,0,2.199,0,4.397,1.101h2.2c1.1,0,2.199,0,3.299,0l17.596-4.399l5.498-2.198c2.199-1.101,4.398-2.199,6.599-3.3
			c3.299-1.1,4.397-3.3,6.599-4.398l2.199-1.1c1.101-1.101,3.299-2.199,4.398-3.3l2.199-2.198c2.2-1.101,3.299-2.199,4.398-3.3
			l3.299-2.198c1.101-1.101,3.299-2.199,4.398-3.301l2.199-2.199c1.1-1.1,2.199-2.198,4.398-4.397l2.199-2.199
			c1.101-1.1,3.299-3.3,4.398-4.398l2.199-2.199c2.2-2.199,4.398-4.397,5.499-7.697c3.299-3.299,5.498-7.696,7.696-10.997
			l1.101-2.199c2.2-3.299,4.399-6.599,5.499-9.896c2.199-3.299,3.299-6.598,4.398-9.896l10.996,2.199l-9.896-3.299
			c1.1-3.3,2.2-5.499,2.2-7.698l10.996,1.101l-10.996-2.199c1.101-5.498,1.101-9.896,1.101-13.196c0-2.198-1.101-3.299-1.101-4.397
			c-1.101-2.199-1.101-2.199-2.2-3.299l15.396-15.396l20.895,20.895c2.199,2.198,4.398,4.397,5.498,7.697
			c0,1.101,1.1,1.101,1.1,1.101c1.101,3.299,2.199,5.498,3.299,8.797v1.101c1.101,6.599,0,13.195-1.1,20.895v2.199
			c-1.1,3.299-1.1,5.499-2.199,8.798l-1.1,3.299c-2.199,4.398-3.299,7.697-5.5,12.097c-2.199,4.398-4.397,7.698-6.598,12.098
			l-2.2,3.299c-2.199,3.299-5.498,7.698-7.696,10.997c-2.199,3.299-4.398,5.499-6.6,7.698l-2.199,2.199
			c-2.199,2.198-3.299,3.299-4.398,5.498l-3.299,3.299c-1.101,1.1-3.299,3.299-4.398,4.397l-3.299,3.3
			c-1.1,1.101-3.299,3.3-4.398,4.398l-3.299,2.199c-1.1,1.1-3.299,2.199-4.397,3.3l-3.299,2.199c-2.2,1.1-3.299,2.198-5.499,3.299
			l-2.199,2.199c-2.2,1.1-4.398,3.299-6.6,4.397c-3.299,2.199-6.598,3.299-8.797,4.398c-1.1,1.1-2.199,1.1-2.199,1.1l-8.797,3.301
			c-2.199,1.1-3.299,1.1-3.299,1.1c-1.101,0-2.199,0-2.199,1.1l-4.399-9.896l3.299,10.997c-1.101,0-2.199,1.101-3.299,1.101
			s-2.199,0-2.199,0l-3.299-10.996l2.199,10.996c-1.101,0-2.199,0-3.299,0h-2.199C490.278,185.24,488.08,185.24,486.981,185.24z
			 M481.481,163.247c1.101,0,2.201,0,2.201,0h2.199c1.1,0,2.199,0,3.299,0l6.599-1.101c1.101,0,1.101,0,2.199-1.101l14.296-5.498
			c2.199-1.101,4.398-2.199,6.6-3.299l1.1-1.101c2.199-1.1,3.299-2.199,5.498-3.3l2.199-1.101c1.1-1.1,3.299-2.198,4.398-3.299
			l2.199-1.1c2.199-1.101,3.299-2.199,4.398-3.301l2.199-2.198c2.2-1.101,3.3-3.3,4.398-4.398l2.199-2.198
			c1.101-1.101,2.199-2.199,4.398-4.398l2.199-2.199c1.1-1.1,3.299-3.3,4.398-4.397l2.199-2.2c2.199-2.199,4.398-4.398,5.498-7.697
			c2.201-3.3,4.399-6.599,6.6-9.896l9.896,4.397l-8.797-6.598l1.1-1.101c2.199-4.397,4.398-6.599,5.498-9.896
			c2.2-3.299,3.3-6.6,4.398-9.896l10.998,2.198l-9.897-3.299V74.17c1.101-2.198,1.101-4.397,2.199-7.696l10.997,1.1l-10.997-2.198
			c1.101-5.5,1.101-9.897,1.101-13.196v-1.102l0,0c-1.101,3.3-2.199,6.6-3.299,10.997v1.102c-2.199,4.397-3.299,7.697-5.498,12.096
			s-4.398,7.698-6.6,12.097l-1.1,2.2c-2.199,4.398-5.498,7.697-8.797,12.096c-2.199,3.301-4.398,5.499-6.6,7.698l-2.199,2.199
			c-1.1,2.198-3.299,3.299-4.398,5.499l-3.299,3.299c-1.101,1.1-3.299,3.299-4.398,4.398l-3.299,3.299
			c-1.1,1.1-3.299,3.299-4.398,4.397l-3.299,2.199c-1.1,1.101-3.299,2.2-4.397,3.3l-3.299,2.199c-2.2,1.1-3.299,2.199-5.499,3.299
			l-2.199,2.2c-2.2,1.101-4.398,3.299-6.6,4.397c-3.299,2.199-6.598,3.3-8.797,4.398l-10.996,4.398c-2.199,1.1-3.299,1.1-3.299,1.1
			c-1.101,0-2.201,0-2.201,1.1l-4.397-9.896l3.299,10.996C483.681,162.147,482.581,162.147,481.481,163.247z"/>
	</g>
	<g>
		<g>
			<path fill="#3096FB" d="M559.56,16.988L559.56,16.988c2.199,0,4.398,0,6.599,1.1c4.397,1.102,6.599,3.301,8.798,7.698
				c3.299,10.997-2.2,35.19-23.094,62.683c-25.293,32.99-62.684,57.185-87.976,57.185c-2.2,0-4.399,0-6.599-1.101
				c-4.398-1.101-6.599-3.3-8.797-7.697c-3.299-10.997,2.199-35.19,23.094-62.684C496.878,41.182,535.366,16.988,559.56,16.988
				 M559.56,4.891c-27.492,0-68.181,25.293-96.771,61.584c-31.891,41.787-36.29,81.377-8.798,89.073
				c3.299,1.101,6.599,1.101,9.897,1.101c27.492,0,68.181-25.292,96.771-61.582c31.891-41.788,36.289-81.377,8.797-89.074
				C566.157,5.992,562.858,4.891,559.56,4.891L559.56,4.891z"/>
			<path fill="#3096FB" d="M463.887,163.247c-4.397,0-7.698,0-12.097-1.101c-9.896-3.3-16.496-9.896-19.795-18.694
				c-6.599-19.794,3.299-49.485,26.394-79.177c32.99-42.889,83.576-71.48,113.269-62.684c9.896,3.299,16.494,9.897,19.793,18.694
				c6.599,19.795-3.299,49.485-26.393,79.178C536.466,135.755,493.578,163.247,463.887,163.247z M559.56,10.391
				c-26.393,0-65.98,25.293-92.373,60.482c-19.795,25.293-29.691,52.785-24.193,68.181c2.2,6.6,6.6,9.897,12.098,12.097
				c2.199,1.101,5.498,1.101,8.797,1.101c26.393,0,65.981-25.293,92.373-59.383c19.795-26.394,29.692-52.785,24.193-68.181
				c-2.199-6.6-6.598-9.897-12.098-12.098C566.157,10.391,562.858,10.391,559.56,10.391z M463.887,151.15
				c-3.299,0-5.498,0-8.797-1.101c-6.599-2.198-9.897-5.498-12.097-12.097c-5.5-15.396,4.397-41.788,24.192-68.181
				c26.394-34.091,65.979-59.384,92.373-59.384c3.299,0,5.498,0,8.798,1.101c6.598,2.199,9.896,5.498,12.098,12.097
				c5.498,15.396-4.399,42.889-24.193,68.182C528.769,126.957,490.278,151.15,463.887,151.15z M559.56,22.487
				c-23.094,0-59.383,24.191-83.576,54.983c-19.795,26.393-25.293,48.387-23.094,58.283c1.1,2.199,2.199,3.299,4.398,4.398
				c1.1,0,3.299,1.1,5.498,1.1c23.094,0,59.383-24.191,83.576-54.984c19.795-26.392,26.393-48.386,23.094-58.282
				c-1.101-2.199-2.199-3.3-4.398-4.398C563.958,22.487,561.759,22.487,559.56,22.487z"/>
		</g>
	</g>
</g>
</svg>
