<?xml version="1.0" encoding="utf-8"?>
<!-- Generator: Adobe Illustrator 19.1.0, SVG Export Plug-In . SVG Version: 6.00 Build 0)  -->
<svg version="1.1" id="Layer_1" xmlns="http://www.w3.org/2000/svg" xmlns:xlink="http://www.w3.org/1999/xlink" x="0px" y="0px"
	 viewBox="0 0 393 319" style="enable-background:new 0 0 393 319;" xml:space="preserve">
<style type="text/css">
	.st0{fill:#FFFFFF;stroke:#FFFFFF;stroke-width:9;stroke-miterlimit:10;}
	.st1{fill:#3096FB;}
	.st2{fill:#FFFFFF;stroke:#FFFFFF;stroke-width:2;stroke-miterlimit:10;}
	.st3{fill:#FFFFFF;}
</style>
<path class="st0" d="M3497.9,188.4c-1.2-6.9-5.6-12.5-12.3-15.5c-3.6-1.6-15.4-4.2-31.5-4.2c-13.9,0-27.6,1.9-40.9,5.6
	c-34.8,9.8-58.3,30.6-62.5,36.6c-4.1,6-5,13.2-2.4,19.6c1.9,4.7,3.9,8.7,6.2,12.2c-2.6,3.3-4.7,7.5-4.7,12.8v19.6c0,0.2,0,0.4,0,0.6
	c0,0.2,0,0.4,0,0.6v1.7c0,9.2,7.5,16.7,16.7,16.7h2.1c4.1,0,7.9-1.5,10.9-4.1h74.5c2.9,2.5,6.8,4.1,10.9,4.1h2.1
	c9.2,0,16.7-7.5,16.7-16.7v-1.7c0-0.2,0-0.4,0-0.6c0-0.2,0-0.4,0-0.6v-19.6c0-10.8-8.7-17.2-13.3-20.7c-0.6-0.4-1.4-1-1.7-1.3
	c-1-0.9-2.4-2.6-3.7-4.3c6.1-1.8,12.2-3.6,18.3-5.4c9.1-2.7,15-9.8,15.7-18.9C3499.2,200,3498.9,194.7,3497.9,188.4z M3486.9,204.2
	c-0.3,4.1-2.8,7-7.1,8.3c-6.5,1.9-13,3.9-19.6,5.8c-1.6-5.5-5-13-14.5-17.6c-3.1-1.5-7.6-2.9-28.9-2.9h0h0l-0.2,0
	c-21.3,0-25.8,1.4-28.9,2.9c-12.1,6-14.4,16.6-15.4,21.7c-0.2,0.8-0.4,1.8-0.5,2.3c-1,1.9-4.9,7.3-6.9,9.1c-0.2,0.2-0.8,0.6-1.2,1
	c-1.4-2.5-2.8-5.3-4.1-8.5c-1.1-2.7-0.7-5.6,1.2-8.3c1.7-2.5,22.1-22.4,55.8-31.9c14-4,27-5.2,37.6-5.2c14.9,0,25.1,2.4,26.7,3.1h0
	c3,1.3,4.9,3.6,5.4,6.5C3486.9,195.7,3487.2,200.1,3486.9,204.2z"/>
<path class="st1" d="M3477.6,255.7c0-7.8-6.6-12.6-10.9-15.9c-0.8-0.6-1.6-1.2-2-1.5c-2.8-2.4-7.3-8.7-8.4-11.1
	c-0.4-0.8-0.6-2.1-0.9-3.5c-1-4.8-2.7-12.9-12.2-17.6c-1.6-0.8-4.6-2.2-26.3-2.3l-0.2,0c-21.7,0-24.7,1.5-26.3,2.3
	c-9.5,4.7-11.2,12.8-12.2,17.6c-0.3,1.4-0.6,2.7-0.9,3.5c-1.1,2.4-5.6,8.7-8.4,11.1c-0.4,0.4-1.2,1-2,1.6c-4.3,3.2-10.9,8-10.9,15.8
	v19.6c0,0.2,0,0.4,0,0.6c0,0.2,0,0.4,0,0.6v1.7c0,5.9,4.8,10.7,10.7,10.7h2.1c3.4,0,6.4-1.6,8.4-4.1h79.5c2,2.5,5,4.1,8.4,4.1h2.1
	c5.9,0,10.7-4.8,10.7-10.7v-1.7c0-0.2,0-0.4,0-0.6c0-0.2,0-0.4,0-0.6V255.7z M3471.6,275.3c0,0.2,0,0.4-0.1,0.6
	c0,0.2,0.1,0.4,0.1,0.6v1.7c0,2.6-2.1,4.7-4.7,4.7h-2.1c-2.4,0-4.3-1.8-4.6-4.1h-87c-0.3,2.3-2.3,4.1-4.6,4.1h-2.1
	c-2.6,0-4.7-2.1-4.7-4.7v-1.7c0-0.2,0-0.4,0.1-0.6c0-0.2-0.1-0.4-0.1-0.6v-19.6c0-4.8,4.7-8.2,8.5-11c0.9-0.7,1.8-1.3,2.4-1.9
	c3.5-3.1,8.5-10.1,9.9-13.1c0.7-1.4,1-3.1,1.4-4.8c0.9-4.5,2.1-10.1,9-13.5c2.7-1.3,14.4-1.6,23.7-1.6l0.2,0
	c9.3,0,20.9,0.3,23.7,1.6c6.9,3.4,8.1,9,9,13.5c0.4,1.8,0.7,3.4,1.4,4.8c1.4,3,6.4,10,9.9,13.1c0.6,0.5,1.5,1.2,2.4,1.9
	c3.8,2.8,8.5,6.2,8.5,11V275.3z"/>
<path class="st2" d="M3496,221.8c-1.9-1-3.9-1.6-6.1-1.8c-1.4-2.1-3.3-3.8-5.6-5.1c-2.3-1.2-4.8-1.9-7.3-1.9h0
	c-4.7,0-9.1,2.1-12,5.7l-0.4-0.2l-0.8,0c-1.2-0.3-2.4-0.4-3.6-0.4c-5.7,0-10.9,3.1-13.6,8.1c-1.3,2.4-1.9,4.9-1.9,7.5
	c-1.5,1.2-2.7,2.7-3.7,4.5c-2,3.6-2.4,7.8-1.2,11.8s3.9,7.2,7.5,9.2c1.4,0.7,8.8,4.5,19,4.5c4,0,7.9-0.6,11.7-1.7
	c16-4.8,23.4-17.8,24.2-19.2C3506.3,235.2,3503.5,225.8,3496,221.8z"/>
<g>
	<g>
		<path class="st1" d="M3419.3,256.1c-13.4,0-24.3-9.9-24.3-22.1c0-12.2,10.9-22.1,24.3-22.1s24.3,9.9,24.3,22.1
			C3443.5,246.2,3432.7,256.1,3419.3,256.1z M3419.3,216.9c-10.4,0-18.9,7.7-18.9,17.2c0,9.5,8.5,17.2,18.9,17.2s18.9-7.7,18.9-17.2
			C3438.1,224.6,3429.7,216.9,3419.3,216.9z"/>
		<path class="st1" d="M3419.3,256.6c-13.7,0-24.8-10.1-24.8-22.5c0-12.4,11.1-22.5,24.8-22.5s24.8,10.1,24.8,22.5
			C3444.1,246.4,3433,256.6,3419.3,256.6z M3419.3,212.4c-13.1,0-23.7,9.7-23.7,21.6c0,11.9,10.6,21.6,23.7,21.6s23.7-9.7,23.7-21.6
			C3443,222.1,3432.4,212.4,3419.3,212.4z M3419.3,251.6c-10.7,0-19.4-7.9-19.4-17.6s8.7-17.6,19.4-17.6s19.4,7.9,19.4,17.6
			S3430,251.6,3419.3,251.6z M3419.3,217.3c-10.1,0-18.3,7.5-18.3,16.7c0,9.2,8.2,16.7,18.3,16.7s18.3-7.5,18.3-16.7
			C3437.6,224.8,3429.4,217.3,3419.3,217.3z"/>
	</g>
</g>
<path class="st3" d="M3485,190.6c-0.3-1.8-1.4-4.2-4.7-5.7l-0.3-0.1c-2.4-0.9-12.2-2.9-25.9-2.9c-12.9,0-25.5,1.7-37.4,5.1
	c-32.5,9.2-53.2,28.7-55.2,31.3l-0.2,0.2c-1.6,2.4-2,5-1.1,7.3c2,5,4,8.7,6.4,12c1.6,2.2,3.8,3.4,6.5,3.4c0.9,0,1.8-0.1,2.9-0.4
	c6.8-1.8,13.5-3.6,20.3-5.5c0.5-0.1,1-0.3,1.4-0.5c1-0.4,1.8-0.8,2.4-1.1l2.6-1.6l0.2-3c0-0.5,0-1,0-1.6c-0.1-1.4-0.2-2.7-0.4-4
	c-0.1-1.1-0.2-2.3-0.3-3.5c-0.2-2.6,0.3-3.9,3.8-5.1c5.1-1.8,10.7-3.5,17.1-5.4c6.5-1.8,12.1-3.2,17.4-4.4c0.8-0.2,1.6-0.3,2.2-0.3
	c1.3,0,2.4,0.2,3.7,2.7c0.5,1,1,2,1.5,3.1c0.6,1.2,1.1,2.4,1.8,3.6c0.3,0.5,0.6,1,0.8,1.4l1.8,2.5l3.1,0c0.7,0,1.4-0.1,2.4-0.3
	c0.5-0.1,1-0.2,1.5-0.3c6.7-2,13.4-4,20.2-5.9c3.9-1.2,6.1-3.7,6.4-7.4C3486.2,200.1,3485.9,195.9,3485,190.6z"/>
<path class="st1" d="M3481,225c0.6,0,1.1,0.1,1.7,0.4c1.7,0.9,2.3,3,1.4,4.7c-0.3,0.6-3.2,5.6-9.5,7.5c-1.6,0.5-3.2,0.7-4.7,0.7
	c-4.1,0-7-1.5-7.4-1.7c-1.7-0.9-2.3-3-1.4-4.7c0.6-1.2,1.8-1.8,3.1-1.8c0.6,0,1.1,0.1,1.7,0.4c0,0,1.8,0.9,4.1,0.9
	c0.8,0,1.7-0.1,2.6-0.4c3.6-1.1,5.3-4.1,5.4-4.1C3478.6,225.7,3479.8,225,3481,225"/>
<path class="st1" d="M3491.6,234.9c0.6,0,1.1,0.1,1.7,0.4c1.7,0.9,2.3,3,1.4,4.7c-0.2,0.4-5.5,10-17,13.4c-2.9,0.9-5.7,1.2-8.3,1.2
	c-7.6,0-13-2.9-13.3-3c-1.7-0.9-2.3-3-1.4-4.7c0.6-1.2,1.8-1.8,3.1-1.8c0.6,0,1.1,0.1,1.7,0.4c0,0,4.3,2.2,10,2.2
	c1.9,0,4.1-0.2,6.3-0.9c8.7-2.6,12.9-10,12.9-10.1C3489.2,235.5,3490.4,234.9,3491.6,234.9"/>
<path class="st1" d="M3491.9,189.4c-0.8-4.8-4-8.8-8.8-11c-2.6-1.1-13.5-3.7-29.1-3.7c-13.3,0-26.5,1.8-39.2,5.4
	c-35.9,10.1-57.2,31.4-59.2,34.3c-3,4.3-3.6,9.4-1.8,14c2.2,5.5,4.5,9.7,7.2,13.5c2.9,4,7.2,6.3,12.2,6.3h0c1.5,0,3.1-0.2,4.7-0.6
	c6.8-1.8,13.5-3.6,20.3-5.5c0.9-0.2,1.6-0.5,2.2-0.7c2.5-1,10.2-4,9.5-14.3c-0.1-1.5-0.3-2.9-0.4-4.3c-0.1-0.5-0.1-1-0.2-1.5
	c4.7-1.6,9.8-3.2,15.6-4.9c5.8-1.6,11.1-2.9,15.9-4c0.2,0.5,0.5,0.9,0.7,1.4c0.6,1.2,1.2,2.5,1.9,3.8c1.6,3.1,3.7,5,5.7,6.1
	c0.4,0.2,0.9,0.4,1.3,0.6c0.7,0.3,1.4,0.5,2.1,0.6c0.7,0.1,1.4,0.2,2.1,0.3c0.2,0,0.5,0,0.7,0c0.6,0,1.2,0,1.8-0.1
	c0.6-0.1,1.2-0.1,1.9-0.3c0.5-0.1,1.3-0.2,2.3-0.5c6.7-2,13.4-4,20.2-5.9c6.6-2,10.9-7.1,11.4-13.6
	C3493.2,200.1,3492.9,195.2,3491.9,189.4z M3485.9,204.1c-0.3,3.7-2.5,6.3-6.4,7.4c-6.7,2-13.4,4-20.2,5.9c-0.5,0.2-1,0.3-1.5,0.3
	c-1,0.2-1.8,0.3-2.4,0.3l-3.2-0.1l-1.7-2.4c-0.3-0.4-0.6-0.8-0.8-1.4c-0.6-1.2-1.2-2.4-1.8-3.6c-0.5-1.1-1-2.1-1.5-3.1
	c-1.3-2.5-2.4-2.7-3.7-2.7c-0.6,0-1.4,0.1-2.2,0.3c-5.3,1.2-11,2.6-17.4,4.4c-6.4,1.9-12,3.6-17.1,5.4c-3.5,1.2-4,2.5-3.8,5.1
	c0.1,1.2,0.2,2.3,0.3,3.5c0.1,1.3,0.3,2.6,0.4,4c0,0.6,0,1.1,0,1.6l-0.2,3l-2.6,1.6c-0.6,0.4-1.4,0.7-2.4,1.1
	c-0.4,0.2-0.9,0.4-1.4,0.5c-6.8,1.8-13.5,3.7-20.3,5.5c-1,0.3-2,0.4-2.9,0.4c-2.7,0-4.9-1.1-6.5-3.4c-2.4-3.3-4.4-7-6.4-12
	c-1-2.3-0.6-5,1.1-7.3l0.1-0.1l0.1-0.1c2-2.6,22.7-22.1,55.2-31.3c12-3.4,24.5-5.1,37.4-5.1c13.7,0,23.5,2,25.9,2.9l0.2,0.1l0.2,0.1
	c3.4,1.5,4.4,3.9,4.7,5.7C3485.9,195.9,3486.2,200.1,3485.9,204.1z"/>
</svg>
