<?xml version="1.0" encoding="utf-8"?>
<!-- Generator: Adobe Illustrator 16.0.0, SVG Export Plug-In . SVG Version: 6.00 Build 0)  -->
<!DOCTYPE svg PUBLIC "-//W3C//DTD SVG 1.1//EN" "http://www.w3.org/Graphics/SVG/1.1/DTD/svg11.dtd">
<svg version="1.1" id="Layer_1" xmlns="http://www.w3.org/2000/svg" xmlns:xlink="http://www.w3.org/1999/xlink" x="0px" y="0px"
	 width="1305.226px" height="738.988px" viewBox="0 0 1305.226 738.988" enable-background="new 0 0 1305.226 738.988"
	 xml:space="preserve">
<path fill="#3096FB" d="M191.097,96.772c56.086,0,97.875,27.49,125.367,53.885l-54.984,183.646
	c-3.301,10.996,1.098,23.094,9.898,29.691l150.656,107.77l-46.188,174.852c-119.867-60.484-438.777-246.33-313.41-475.064
	c23.094-41.789,64.883-67.08,104.469-72.58C174.604,97.872,183.401,96.772,191.097,96.772 M191.097,63.782
	c-9.895,0-19.793,1.1-29.688,2.197c-53.887,7.697-103.371,41.789-128.664,89.074C-2.446,218.836-9.044,283.715,11.851,349.698
	c48.387,156.156,239.729,270.521,348.602,325.508l36.289,17.594l10.996-39.588l46.188-174.85l5.496-21.994l-18.691-13.195
	l-146.262-105.57l53.887-179.248l5.5-18.695l-14.297-14.295C296.667,85.774,246.081,63.782,191.097,63.782L191.097,63.782z"/>
<g>
	<path fill="#3096FB" d="M563.894,564.139c-51.688,52.785-93.473,85.775-93.473,85.775l0,0l52.785-197.943
		c3.297-10.996-1.102-23.094-9.898-28.592L363.749,315.61l48.387-162.754c14.297-37.391,52.785-105.57,144.059-118.768
		c4.398-1.1,9.898-1.1,15.398-1.1c36.289,0,76.977,15.395,102.27,41.789c8.797-7.697,17.594-14.297,26.396-20.896
		c-1.104-1.1-1.104-1.1-2.199-2.197C667.267,19.792,617.782-0.001,571.595-0.001c-6.6,0-13.195,0-19.799,1.1
		C440.731,16.495,395.646,103.37,382.444,140.756v1.102v1.1l-48.387,162.754l-6.598,23.094L346.155,342l146.258,104.471
		l-51.684,194.645l-7.699,27.492l26.395,10.996l17.594,7.697l15.398-12.098c4.398-3.299,42.887-32.99,90.172-81.377
		C573.788,585.034,568.292,575.135,563.894,564.139z"/>
</g>
<g>
	<g>
		<path fill="#3096FB" d="M912.492,597.129c-68.18,0-130.861-30.793-171.551-85.775c-5.496-7.697-4.396-17.596,3.301-23.094
			c7.699-5.498,17.596-4.398,23.096,3.301c35.188,46.186,87.973,72.578,145.154,72.578c101.174,0,182.553-81.377,182.553-182.549
			c0-8.797,7.693-16.494,16.49-16.494c8.803,0,16.496,7.697,16.496,16.494C1128.031,500.358,1031.261,597.129,912.492,597.129z"/>
	</g>
	<g>
		<path fill="#3096FB" d="M788.23,303.514c-32.992,0-59.383-26.395-59.383-59.385s26.391-59.383,59.383-59.383
			c32.988,0,59.383,26.393,59.383,59.383S820.121,303.514,788.23,303.514z M788.23,218.838c-14.297,0-26.395,12.098-26.395,26.393
			c0,14.297,12.098,26.393,26.395,26.393s26.391-12.096,26.391-26.393S802.523,218.838,788.23,218.838z"/>
	</g>
	<g>
		<path fill="#3096FB" d="M1135.73,294.715c-2.199,0-5.5-1.1-7.699-2.197c-25.293-14.299-53.883-27.492-61.582-27.492
			c-6.598,0-36.289,13.193-61.582,27.492c-7.695,4.396-17.594,1.1-21.992-6.6c-4.396-7.697-1.098-17.594,6.6-21.994
			c13.193-7.695,57.184-30.791,76.977-30.791c19.797,0,63.785,24.193,76.98,30.791c7.693,4.4,10.996,14.297,6.598,21.994
			C1146.726,291.417,1141.23,294.715,1135.73,294.715z"/>
	</g>
</g>
<path fill="#3096FB" d="M939.984,41.788c-192.445,0-348.598,156.154-348.598,348.6c0,192.447,156.153,348.602,348.598,348.602
	c192.447,0,348.604-156.154,348.604-348.6C1288.587,197.942,1132.429,41.788,939.984,41.788z M939.984,707.096
	c-174.848,0-315.608-141.857-315.608-315.607S766.234,75.879,939.984,75.879c174.854,0,315.609,141.859,315.609,315.609
	S1114.837,707.096,939.984,707.096z"/>
</svg>
