<?xml version="1.0" encoding="utf-8"?>
<!-- Generator: Adobe Illustrator 16.0.0, SVG Export Plug-In . SVG Version: 6.00 Build 0)  -->
<!DOCTYPE svg PUBLIC "-//W3C//DTD SVG 1.1//EN" "http://www.w3.org/Graphics/SVG/1.1/DTD/svg11.dtd">
<svg version="1.1" id="Layer_1" xmlns="http://www.w3.org/2000/svg" xmlns:xlink="http://www.w3.org/1999/xlink" x="0px" y="0px"
	 width="526px" height="248.044px" viewBox="-9.903 -10.956 526 248.044" enable-background="new -9.903 -10.956 526 248.044"
	 xml:space="preserve">
<path fill="#3096FB" d="M472.546,162.92c-3.75,1.667-7.5,3.75-11.666,5.417l1.666,8.333c0.834,3.751-2.084,6.667-5.416,6.667
	c-0.834,0-1.668-0.417-2.918-0.833l-12.5-7.084c-5.416,1.667-10.834,3.334-16.25,5l22.916,12.917c2.918,1.667,5.834,2.5,8.752,2.5
	c5.416,0,10.416-2.5,14.166-6.667c3.334-4.166,4.584-9.583,3.75-15L472.546,162.92z"/>
<path fill="#3096FB" d="M317.126,198.338c-4.166,0.416-8.334,0.833-12.5,0.833l5.416,25.417l-42.5-24.167c-5,0-10,0-14.584,0
	c-5,0-9.584,0-14.584,0l-42.084,24.167l5.418-25.834c-4.168-0.416-8.334-0.416-12.502-0.833l-5,24.167c-0.832,3.75,0,7.5,2.5,10.417
	c3.75,4.583,10.418,5.833,15.834,2.917l50.836-28.751l50.834,28.751c1.666,1.25,4.166,1.666,6.25,1.666
	c3.75,0,7.082-1.666,9.584-4.583c2.5-2.917,3.332-6.667,2.5-10.417L317.126,198.338z"/>
<g>
	<path fill="#3096FB" d="M506.298,73.752c-2.084-6.667-8.334-11.668-15.002-12.501l-48.75-5.417L422.128,11.25
		c-2.916-6.25-9.166-10.417-16.25-10.417S392.544,5,389.628,11.25L369.21,55.834l-48.75,5.417c-7.084,0.833-12.918,5.834-15,12.501
		c-2.084,5.833-0.418,12.5,3.332,17.083l20.834,2.5l-10.832-9.583c-3.334-3.334-1.668-9.167,2.916-9.584l52.918-5.834
		c2.082-0.416,3.75-1.25,4.582-3.333l22.084-48.334c0.834-2.084,2.918-3.334,5-3.334c2.084,0,4.168,1.25,5,3.334l22.084,48.334
		c0.834,1.667,2.5,2.917,4.584,3.333l52.918,5.834c4.584,0.417,6.666,6.25,2.916,9.584l-39.168,35.834
		c-1.25,1.25-2.082,3.333-1.666,5.416l2.5,12.084c4.166-2.083,8.334-4.166,11.666-5.834l-0.832-4.583l36.25-33.334
		C506.714,87.918,508.38,80.418,506.298,73.752z"/>
</g>
<path fill="#3096FB" d="M309.626,96.669"/>
<path fill="#3096FB" d="M64.205,175.42l-12.502,7.084c-0.832,0.416-1.666,0.834-2.916,0.834c-3.334,0-6.25-2.917-5.416-6.667
	l1.666-8.334c-4.166-1.667-7.916-3.75-11.668-5.417l-2.498,11.251c-1.252,5.417,0.416,10.833,3.75,15
	c3.332,4.167,8.75,6.667,14.166,6.667c2.916,0,6.25-0.834,8.75-2.5l22.918-12.917C75.037,178.754,69.621,177.087,64.205,175.42z"/>
<g>
	<path fill="#3096FB" d="M40.037,130.42c3.334,2.083,7.082,4.166,11.666,5.833l2.5-12.084c0.418-2.083-0.416-3.75-1.666-5.417
		L13.369,82.918c-3.334-3.333-1.666-9.166,2.916-9.583l52.918-5.834c2.084-0.416,3.75-1.25,4.584-3.333l22.084-48.334
		c0.834-2.084,2.916-3.334,5-3.334s4.166,1.25,5,3.334l22.084,48.334c0.834,1.667,2.5,2.917,4.584,3.333l52.916,5.834
		c4.584,0.417,6.668,6.25,2.918,9.583l-10.834,9.584l20.834-2.5c3.75-4.583,5-11.25,3.334-17.084c-2.084-6.666-8.334-11.666-15-12.5
		l-48.752-5.417l-20.418-44.584C114.621,4.167,108.371,0,101.287,0c-7.082,0-13.332,4.167-16.25,10.417L64.619,55.001l-48.75,5.417
		c-7.084,0.834-12.918,5.834-15,12.5c-2.084,6.667-0.418,14.168,5,18.751l36.25,33.334L40.037,130.42z"/>
</g>
<g>
	<path fill="#3096FB" d="M195.873,165.004l-0.416,2.083c4.168,0.417,8.334,0.417,12.5,0.833v-0.416
		c0.834-4.167-0.416-8.75-3.75-11.667l-43.334-39.168l58.334-6.667c4.168-0.416,7.918-3.333,10.002-7.083l24.166-53.335
		l24.168,53.335c1.666,3.75,5.418,6.667,10,7.083l57.918,6.25l-43.334,39.585c-3.334,2.917-4.584,7.5-3.75,11.667v0.416
		c4.166-0.416,8.334-0.416,12.5-0.833l-0.416-2.083l43.334-39.585c3.75-3.333,5-8.333,3.334-12.917
		c-1.666-4.583-5.418-7.916-10.418-8.333l-57.918-6.667l-24.166-53.334c-2.084-4.584-6.252-7.084-11.25-7.084
		c-5,0-9.168,2.917-11.252,7.084l-24.166,53.334l-58.336,6.667c-5,0.417-8.75,3.75-10.416,8.333
		c-1.666,4.584-0.416,9.584,3.334,12.917L195.873,165.004z"/>
</g>
<path fill="#3096FB" d="M502.13,100.002l-2.916,2.5c1.25,2.917,2.084,5.834,2.084,8.75c0,34.168-102.92,68.335-248.756,68.335
	v10.417c142.502,0,252.922-30.834,252.922-76.252C505.88,108.752,505.464,105.419,502.13,100.002z"/>
<path fill="#3096FB" d="M3.787,100.002l2.916,2.5c-1.25,2.917-2.084,5.834-2.084,8.75c0,34.168,102.92,68.335,248.756,68.335v10.417
	c-142.504,0-252.922-30.834-252.922-76.252C0.037,108.752,0.869,105.419,3.787,100.002z"/>
</svg>
