<?xml version="1.0" encoding="utf-8"?>
<!-- Generator: Adobe Illustrator 16.0.0, SVG Export Plug-In . SVG Version: 6.00 Build 0)  -->
<!DOCTYPE svg PUBLIC "-//W3C//DTD SVG 1.1//EN" "http://www.w3.org/Graphics/SVG/1.1/DTD/svg11.dtd">
<svg version="1.1" id="Layer_1" xmlns="http://www.w3.org/2000/svg" xmlns:xlink="http://www.w3.org/1999/xlink" x="0px" y="0px"
	 width="447.68px" height="222.85px" viewBox="2593 1114.5 447.68 222.85" enable-background="new 2593 1114.5 447.68 222.85"
	 xml:space="preserve">
<path fill="#3096FB" d="M2880.781,1245.606l-20.375-14.173l20.375-14.174c2.66-2.657,2.66-6.644,0-9.302
	c-2.656-2.657-6.645-2.657-9.301,0l-14.176,20.375l-14.176-20.375c-2.656-2.657-6.641-2.657-9.301,0
	c-2.656,2.658-2.656,6.645,0,9.302l20.375,14.174l-20.375,14.173c-2.656,2.658-2.656,6.645,0,9.302c2.66,2.657,6.645,2.657,9.301,0
	l14.176-20.374l14.176,20.374c2.656,2.657,6.645,2.657,9.301,0C2883.441,1252.251,2883.441,1248.265,2880.781,1245.606z"/>
<path fill="#3096FB" d="M2987.086,1290.343c0-0.442,0-0.442,0-0.885l0,0c0-2.215,1.328-3.986,3.543-4.43l0,0
	c2.215-0.443,4.871,0.886,5.316,3.543l0,0c0,0.443,0,0.443,0,0.887l0,0c0,2.215-1.328,3.986-3.543,4.429l0,0
	c-0.445,0-0.887,0-0.887,0l0,0C2989.301,1293.443,2987.527,1292.114,2987.086,1290.343z"/>
<path fill="#3096FB" d="M2990.188,1177.839c-2.215-0.443-3.543-2.215-3.543-4.43l0,0c0-0.442,0-0.442,0-0.885l0,0
	c0.441-2.215,3.102-3.986,5.316-3.544l0,0c2.215,0.442,3.543,2.215,3.543,4.429l0,0c0,0.443,0,0.443,0,0.887l0,0
	c-0.445,2.215-2.215,3.543-4.43,3.543l0,0C2990.629,1178.282,2990.629,1178.282,2990.188,1177.839z"/>
<path fill="#3096FB" d="M2996.832,1171.638c-3.102,1.329-6.203,3.101-8.859,4.873c26.133,4.429,46.063,27.461,46.063,54.923
	c0,27.461-19.93,50.493-46.063,54.923c2.656,1.771,5.758,3.544,8.859,4.873c25.246-7.974,43.848-31.892,43.848-59.796
	C3040.68,1203.528,3022.074,1179.61,2996.832,1171.638z"/>
<path fill="#3096FB" d="M2973.355,1300.53c-38.094,0-69.098-31.005-69.098-69.097s31.004-69.097,69.098-69.097
	c8.855,0,17.715,1.771,26.129,5.314c1.773,0.886,2.66,2.215,2.66,3.986s-0.887,3.544-2.66,3.986
	c-23.031,9.302-37.648,31.448-37.648,55.81c0,24.36,14.617,46.507,37.648,55.809c1.773,0.886,2.66,2.215,2.66,3.987
	c0,1.771-0.887,3.543-2.66,3.986C2991.07,1299.202,2982.211,1300.53,2973.355,1300.53z M2973.355,1171.195
	c-33.223,0-60.242,27.019-60.242,60.238s27.02,60.238,60.242,60.238c4.426,0,8.414-0.442,12.398-1.329
	c-20.375-12.402-33.219-34.549-33.219-58.91s12.844-46.508,33.219-58.91C2981.77,1171.638,2977.344,1171.195,2973.355,1171.195z"/>
<path fill="#3096FB" d="M2715.125,1271.739c10.633-2.214,19.934-8.857,26.133-18.16c5.758-9.301,7.973-20.374,5.758-31.004
	c-4.871-22.146-27.02-36.32-49.164-31.448c-10.629,2.215-19.934,8.858-26.133,18.16c-5.758,9.302-7.973,20.374-5.758,31.005
	C2670.832,1262.882,2692.535,1276.612,2715.125,1271.739z M2679.691,1214.603c6.203-9.303,16.391-14.617,26.578-14.617
	c5.758,0,11.516,1.771,16.828,4.871c14.617,9.303,19.047,28.791,9.305,43.408c-4.43,7.086-11.52,11.959-19.934,13.73
	c-7.973,1.771-16.832,0.443-23.918-4.43C2674.82,1248.708,2670.391,1229.219,2679.691,1214.603z"/>
<path fill="#3096FB" d="M2705.824,1176.952l0.445-39.863c-0.445-4.429-4.43-7.529-8.418-7.086c-4.43,0.442-7.527,4.429-7.086,8.415
	l7.973,38.978C2700.953,1176.952,2703.609,1176.952,2705.824,1176.952z"/>
<path fill="#3096FB" d="M2675.262,1186.255l-20.816-37.206c-2.66-3.544-7.531-4.43-11.074-1.772
	c-3.543,2.658-4.43,7.529-1.77,11.074l28.344,32.334C2671.719,1188.912,2673.492,1187.583,2675.262,1186.255z"/>
<path fill="#3096FB" d="M2658.434,1204.857l-39.422-23.476c-3.984-1.771-8.414,0-10.188,3.986c-1.77,3.986,0,8.416,3.988,10.188
	l43.406,14.617C2656.66,1208.401,2657.547,1206.63,2658.434,1204.857z"/>
<path fill="#3096FB" d="M2651.344,1231.876l-39.863-0.442c-4.43,0.442-7.531,4.429-7.086,8.415c0.441,4.43,4.43,7.53,8.414,7.088
	l38.977-7.974C2651.789,1236.749,2651.344,1234.091,2651.344,1231.876z"/>
<path fill="#3096FB" d="M2661.09,1262.438l-37.207,20.817c-3.543,2.657-4.43,7.53-1.77,11.073c2.656,3.543,7.527,4.43,11.07,1.771
	l32.336-28.348C2663.746,1265.981,2662.418,1264.21,2661.09,1262.438z"/>
<path fill="#3096FB" d="M2679.691,1279.271l-23.473,39.42c-1.773,3.986,0,8.416,3.984,10.188c3.988,1.772,8.418,0,10.188-3.986
	l14.617-43.407C2683.234,1281.041,2681.465,1280.155,2679.691,1279.271z"/>
<path fill="#3096FB" d="M2732.844,1183.597l23.477-39.421c1.77-3.986,0-8.415-3.988-10.188c-3.984-1.772-8.414,0-10.188,3.986
	l-14.613,43.407C2729.301,1181.825,2731.074,1182.711,2732.844,1183.597z"/>
<path fill="#3096FB" d="M2706.711,1286.356l-0.441,39.863c0.441,4.43,4.43,7.53,8.414,7.088c3.984-0.443,7.531-4.43,7.086-8.416
	l-7.969-38.979C2711.586,1285.914,2708.926,1286.356,2706.711,1286.356z"/>
<path fill="#3096FB" d="M2770.938,1304.96l-28.348-32.334c-1.773,1.328-3.543,2.656-5.316,3.986l20.82,37.205
	c2.656,3.545,7.527,4.43,11.07,1.772S2773.152,1308.503,2770.938,1304.96z"/>
<path fill="#3096FB" d="M2799.727,1267.311l-43.406-14.616c-0.887,1.771-1.77,3.543-2.656,5.314l39.418,23.475
	c3.988,1.772,8.414,0,10.188-3.986C2805.484,1273.954,2803.711,1269.083,2799.727,1267.311z"/>
<path fill="#3096FB" d="M2799.285,1215.931l-38.98,7.973c0.445,2.215,0.445,4.873,0.445,7.088l39.863,0.442
	c4.43-0.442,7.531-4.43,7.086-8.416S2803.711,1215.487,2799.285,1215.931z"/>
<path fill="#3096FB" d="M2790.426,1168.98c-2.66-3.544-7.531-4.429-11.074-1.772l-32.332,28.348
	c1.328,1.772,2.656,3.544,3.984,5.315l37.207-20.817C2792.195,1177.396,2793.082,1172.523,2790.426,1168.98z"/>
</svg>
